<svg width="25" height="25" viewBox="0 0 25 25" fill="none" xmlns="http://www.w3.org/2000/svg">
<g clip-path="url(#clip0_22_358)">
<path d="M7.62174 0.332841L18.9854 11.6968C19.1985 11.9098 19.3182 12.1989 19.3182 12.5003C19.3182 12.8017 19.1984 13.0907 18.9853 13.3038L7.62166 24.6672C7.17787 25.1109 6.4584 25.1109 6.01462 24.6672C5.5709 24.2234 5.57083 23.5039 6.01462 23.0601L16.5747 12.5003L6.01462 1.93989C5.79272 1.71799 5.68181 1.42716 5.68181 1.13633C5.68181 0.845493 5.79272 0.554658 6.01469 0.332765C6.45848 -0.110947 7.17795 -0.110947 7.62174 0.332841Z" fill="#BDBDBD"/>
</g>
<defs>
<clipPath id="clip0_22_358">
<rect width="25" height="25" fill="white" transform="matrix(4.37114e-08 -1 -1 -4.37114e-08 25 25)"/>
</clipPath>
</defs>
</svg>
