<svg width="115" height="115" viewBox="0 0 115 115" fill="none" xmlns="http://www.w3.org/2000/svg">
<path d="M29.8731 98.8282C28.494 98.8256 27.1394 98.4641 25.9424 97.7792C23.2471 96.2519 21.5715 93.287 21.5715 90.0684V24.9317C21.5715 21.704 23.2471 18.7482 25.9424 17.2208C27.1679 16.5165 28.56 16.1544 29.9734 16.1721C31.3867 16.1899 32.7693 16.587 33.9767 17.3219L89.6461 50.645C90.8063 51.3724 91.7627 52.3827 92.4257 53.5809C93.0887 54.7791 93.4365 56.1261 93.4365 57.4955C93.4365 58.865 93.0887 60.2119 92.4257 61.4102C91.7627 62.6084 90.8063 63.6186 89.6461 64.3461L33.9677 97.6782C32.7321 98.4251 31.3169 98.8226 29.8731 98.8282Z" fill="#FF7600"/>
</svg>
