<svg width="35" height="35" viewBox="0 0 35 35" fill="none" xmlns="http://www.w3.org/2000/svg">
<g clip-path="url(#clip0_56_272)">
<path d="M2.92251 32.0837L4.89418 24.8387C3.595 22.6116 2.91244 20.0786 2.91668 17.5003C2.91668 9.44595 9.44563 2.91699 17.5 2.91699C25.5544 2.91699 32.0833 9.44595 32.0833 17.5003C32.0833 25.5547 25.5544 32.0837 17.5 32.0837C14.9228 32.0878 12.391 31.4058 10.1646 30.1076L2.92251 32.0837ZM12.2369 10.6578C12.0486 10.6695 11.8645 10.7191 11.6958 10.8037C11.5376 10.8932 11.3932 11.0052 11.2671 11.1362C11.0921 11.301 10.9929 11.4439 10.8865 11.5824C10.3475 12.2839 10.0576 13.1449 10.0625 14.0295C10.0654 14.7441 10.2521 15.4397 10.5438 16.0901C11.1402 17.4055 12.1217 18.7982 13.4181 20.0889C13.7302 20.3995 14.035 20.7116 14.3631 21.0018C15.9722 22.4185 17.8898 23.4402 19.9631 23.9855L20.7929 24.1124C21.0627 24.127 21.3325 24.1066 21.6038 24.0935C22.0285 24.0715 22.4432 23.9565 22.8186 23.7566C23.0606 23.6282 23.1744 23.5641 23.3771 23.4357C23.3771 23.4357 23.4398 23.3949 23.5594 23.3045C23.7563 23.1587 23.8773 23.0551 24.0406 22.8845C24.1617 22.7591 24.2667 22.6118 24.3469 22.4441C24.4606 22.2064 24.5744 21.7528 24.621 21.3751C24.6561 21.0864 24.6458 20.9289 24.6415 20.8312C24.6356 20.6751 24.5058 20.5132 24.3644 20.4447L23.5156 20.0641C23.5156 20.0641 22.2469 19.5114 21.4725 19.1585C21.3909 19.1229 21.3034 19.1026 21.2144 19.0987C21.1146 19.0884 21.0138 19.0996 20.9187 19.1316C20.8236 19.1635 20.7365 19.2155 20.6631 19.2839V19.281C20.6558 19.281 20.5581 19.3641 19.5038 20.6416C19.4432 20.7229 19.3599 20.7844 19.2643 20.8181C19.1687 20.8519 19.0653 20.8564 18.9671 20.8312C18.8721 20.8058 18.779 20.7736 18.6886 20.7349C18.5077 20.6591 18.445 20.6299 18.3211 20.576L18.3138 20.573C17.4795 20.2088 16.707 19.7168 16.0242 19.1147C15.8404 18.9543 15.6698 18.7793 15.4948 18.6101C14.9211 18.0607 14.4211 17.4391 14.0073 16.761L13.9213 16.6224C13.8595 16.5293 13.8095 16.4289 13.7725 16.3235C13.7171 16.1091 13.8615 15.937 13.8615 15.937C13.8615 15.937 14.2158 15.5491 14.3806 15.3391C14.5178 15.1645 14.6459 14.983 14.7642 14.7951C14.9363 14.518 14.9902 14.2337 14.8998 14.0135C14.4915 13.016 14.0686 12.0228 13.634 11.037C13.5479 10.8416 13.2927 10.7016 13.0608 10.6739C12.9821 10.6651 12.9033 10.6564 12.8246 10.6505C12.6287 10.6408 12.4325 10.6428 12.2369 10.6564V10.6578Z" fill="white"/>
</g>
<defs>
<clipPath id="clip0_56_272">
<rect width="35" height="35" fill="white"/>
</clipPath>
</defs>
</svg>
